<svg width="40" height="41" viewBox="0 0 40 41" fill="none" xmlns="http://www.w3.org/2000/svg">
<g id="ic/burger">
<rect id="back" y="0.75708" width="40" height="40.2429" rx="20" fill="#76CA3C"/>
<path id="icon" fill-rule="evenodd" clip-rule="evenodd" d="M11 13.8362C11 13.2839 11.4477 12.8301 12 12.8301H28C28.5523 12.8301 29 13.2839 29 13.8362C29 14.3884 28.5523 14.8422 28 14.8422H12C11.4477 14.8422 11 14.3884 11 13.8362ZM11 20.8786C11 20.3263 11.4477 19.8725 12 19.8725H28C28.5523 19.8725 29 20.3263 29 20.8786C29 21.4309 28.5523 21.8847 28 21.8847H12C11.4477 21.8847 11 21.4309 11 20.8786ZM12 26.915C11.4477 26.915 11 27.3688 11 27.921C11 28.4733 11.4477 28.9271 12 28.9271H28C28.5523 28.9271 29 28.4733 29 27.921C29 27.3688 28.5523 26.915 28 26.915H12Z" fill="white"/>
</g>
</svg>
