<svg width="218" height="45" viewBox="0 0 218 45" fill="none" xmlns="http://www.w3.org/2000/svg">
<g id="Frame 4">
<g id="Group">
<g id="1">
<rect id="Rectangle" width="44.4277" height="45" rx="22.2138" fill="#4B8C35"/>
<path id="&#239;&#142;&#158;" d="M26.4495 22.7728L26.931 19.5679H23.8701V17.4778C23.8701 16.5721 24.2828 15.7361 25.6585 15.7361H27.0686V12.9841C27.0686 12.9841 25.7961 12.7402 24.5923 12.7402C22.0817 12.7402 20.4309 14.3078 20.4309 17.0946V19.5679H17.6107V22.7728H20.4309V30.5759H23.8701V22.7728H26.4495Z" fill="white"/>
</g>
<g id="1_2">
<rect id="Rectangle_2" x="57.8582" width="44.4277" height="45" rx="22.2138" fill="#67B53A"/>
<path id="&#239;&#130;&#153;" d="M87.4775 18.8756C88.1653 18.3531 88.7844 17.7261 89.2659 16.9945C88.6468 17.2732 87.9246 17.4822 87.2023 17.5519C87.959 17.099 88.5092 16.4023 88.7844 15.5314C88.0965 15.9495 87.3055 16.263 86.5145 16.4372C85.8267 15.7056 84.8981 15.2876 83.8663 15.2876C81.8716 15.2876 80.2551 16.9249 80.2551 18.9453C80.2551 19.224 80.2895 19.5027 80.3583 19.7813C77.3662 19.6072 74.6836 18.1441 72.8952 15.9495C72.5857 16.472 72.4137 17.099 72.4137 17.7957C72.4137 19.0498 73.0328 20.1645 74.0302 20.8264C73.4455 20.7916 72.8608 20.6522 72.3793 20.3735V20.4084C72.3793 22.185 73.6175 23.648 75.2683 23.9964C74.9931 24.0661 74.6492 24.1357 74.3397 24.1357C74.0989 24.1357 73.8926 24.1009 73.6518 24.0661C74.0989 25.5291 75.4402 26.5742 77.0223 26.609C75.7842 27.5844 74.2365 28.1766 72.5513 28.1766C72.2418 28.1766 71.9666 28.1418 71.6915 28.1069C73.2735 29.152 75.1651 29.7442 77.2286 29.7442C83.8663 29.7442 87.4775 24.2054 87.4775 19.3633C87.4775 19.1891 87.4775 19.0498 87.4775 18.8756Z" fill="white"/>
</g>
<g id="1_3">
<rect id="Rectangle_3" x="115.716" width="44.4277" height="45" rx="22.2138" fill="#529636"/>
<path id="&#239;&#131;&#149;" d="M139.896 21.0361H133.637V23.3353H137.386C137.248 24.3106 136.251 26.2266 133.637 26.2266C131.402 26.2266 129.544 24.3455 129.544 21.9767C129.544 19.6427 131.402 17.7616 133.637 17.7616C134.944 17.7616 135.804 18.319 136.285 18.8067L138.074 17.0649C136.904 15.9502 135.425 15.2883 133.637 15.2883C129.992 15.2883 127.034 18.2842 127.034 21.9767C127.034 25.7041 129.992 28.665 133.637 28.665C137.455 28.665 140 25.9827 140 22.1509C140 21.698 139.931 21.3845 139.896 21.0361ZM146.259 21.2451V19.3292H144.333V21.2451H142.407V23.1959H144.333V25.1467H146.259V23.1959H148.185V21.2451H146.259Z" fill="white"/>
</g>
<g id="1_4">
<rect id="Rectangle_4" x="173.572" width="44.4277" height="45" rx="22.2138" fill="#529736"/>
<path id="&#239;&#131;&#161;" d="M190.848 29.5857V19.17H187.65V29.5857H190.848ZM189.232 17.7766C190.264 17.7766 191.089 16.9057 191.089 15.8607C191.089 14.8504 190.264 14.0144 189.232 14.0144C188.235 14.0144 187.409 14.8504 187.409 15.8607C187.409 16.9057 188.235 17.7766 189.232 17.7766ZM202.783 29.5857H202.817V23.8728C202.817 21.0859 202.198 18.9262 198.965 18.9262C197.417 18.9262 196.386 19.797 195.938 20.5983H195.904V19.17H192.843V29.5857H196.042V24.4301C196.042 23.0716 196.282 21.7827 197.933 21.7827C199.584 21.7827 199.618 23.3154 199.618 24.5346V29.5857H202.783Z" fill="white"/>
</g>
</g>
</g>
</svg>
