<svg width="46" height="45" viewBox="0 0 46 45" fill="none" xmlns="http://www.w3.org/2000/svg">
<g id="1">
<rect id="Rectangle" x="0.716064" y="-0.00012207" width="44.4277" height="45" rx="22.2138" fill="#529636"/>
<path id="&#239;&#131;&#149;" d="M24.8966 21.0359H18.6372V23.335H22.386C22.2484 24.3104 21.251 26.2263 18.6372 26.2263C16.4017 26.2263 14.5446 24.3452 14.5446 21.9764C14.5446 19.6425 16.4017 17.7614 18.6372 17.7614C19.9441 17.7614 20.8039 18.3187 21.2854 18.8064L23.0738 17.0647C21.9045 15.95 20.4256 15.2881 18.6372 15.2881C14.9917 15.2881 12.0339 18.2839 12.0339 21.9764C12.0339 25.7038 14.9917 28.6648 18.6372 28.6648C22.4548 28.6648 24.9998 25.9825 24.9998 22.1506C24.9998 21.6978 24.931 21.3842 24.8966 21.0359ZM31.2591 21.2449V19.329H29.3332V21.2449H27.4072V23.1957H29.3332V25.1464H31.2591V23.1957H33.1851V21.2449H31.2591Z" fill="white"/>
</g>
</svg>
