<svg width="35" height="36" viewBox="0 0 35 36" fill="none" xmlns="http://www.w3.org/2000/svg">
<g id="1">
<rect id="Rectangle" x="0.786377" width="34.0884" height="35.3864" rx="17.0442" fill="#529636"/>
<path id="&#239;&#131;&#149;" d="M19.3395 16.542H14.5368V18.3499H17.4132C17.3076 19.1169 16.5424 20.6235 14.5368 20.6235C12.8216 20.6235 11.3966 19.1443 11.3966 17.2816C11.3966 15.4462 12.8216 13.967 14.5368 13.967C15.5396 13.967 16.1993 14.4053 16.5687 14.7888L17.9409 13.4191C17.0437 12.5426 15.909 12.0221 14.5368 12.0221C11.7397 12.0221 9.47028 14.3779 9.47028 17.2816C9.47028 20.2126 11.7397 22.5411 14.5368 22.5411C17.4659 22.5411 19.4187 20.4318 19.4187 17.4185C19.4187 17.0624 19.3659 16.8159 19.3395 16.542ZM24.2214 16.7063V15.1997H22.7436V16.7063H21.2659V18.2403H22.7436V19.7743H24.2214V18.2403H25.6991V16.7063H24.2214Z" fill="white"/>
</g>
</svg>
