<svg width="45" height="45" viewBox="0 0 45 45" fill="none" xmlns="http://www.w3.org/2000/svg">
<g id="1">
<rect id="Rectangle" x="0.572266" y="-0.00012207" width="44.4277" height="45" rx="22.2138" fill="#529736"/>
<path id="&#239;&#131;&#161;" d="M17.8484 29.5855V19.1698H14.6499V29.5855H17.8484ZM16.232 17.7764C17.2637 17.7764 18.0891 16.9055 18.0891 15.8604C18.0891 14.8502 17.2637 14.0142 16.232 14.0142C15.2346 14.0142 14.4092 14.8502 14.4092 15.8604C14.4092 16.9055 15.2346 17.7764 16.232 17.7764ZM29.7825 29.5855H29.8169V23.8725C29.8169 21.0857 29.1978 18.9259 25.9649 18.9259C24.4173 18.9259 23.3855 19.7968 22.9384 20.598H22.904V19.1698H19.8431V29.5855H23.0416V24.4299C23.0416 23.0713 23.2823 21.7824 24.9332 21.7824C26.584 21.7824 26.6184 23.3152 26.6184 24.5344V29.5855H29.7825Z" fill="white"/>
</g>
</svg>
