<svg width="35" height="36" viewBox="0 0 35 36" fill="none" xmlns="http://www.w3.org/2000/svg">
<g id="1">
<rect id="Rectangle" x="0.178223" width="34.0884" height="35.3864" rx="17.0442" fill="#529736"/>
<path id="&#239;&#131;&#161;" d="M13.4339 23.2651V15.0746H10.9798V23.2651H13.4339ZM12.1936 13.9788C12.9853 13.9788 13.6186 13.294 13.6186 12.4722C13.6186 11.6778 12.9853 11.0204 12.1936 11.0204C11.4284 11.0204 10.795 11.6778 10.795 12.4722C10.795 13.294 11.4284 13.9788 12.1936 13.9788ZM22.5906 23.2651H22.617V18.7726C22.617 16.5812 22.142 14.8828 19.6615 14.8828C18.4741 14.8828 17.6824 15.5676 17.3394 16.1977H17.313V15.0746H14.9644V23.2651H17.4185V19.2109C17.4185 18.1426 17.6032 17.1291 18.8699 17.1291C20.1365 17.1291 20.1629 18.3344 20.1629 19.2931V23.2651H22.5906Z" fill="white"/>
</g>
</svg>
