<svg width="46" height="45" viewBox="0 0 46 45" fill="none" xmlns="http://www.w3.org/2000/svg">
<g id="1">
<rect id="Rectangle" x="0.858154" y="-0.00012207" width="44.4277" height="45" rx="22.2138" fill="#67B53A"/>
<path id="&#239;&#130;&#153;" d="M30.4774 18.8755C31.1652 18.353 31.7843 17.7259 32.2658 16.9944C31.6467 17.2731 30.9245 17.4821 30.2023 17.5518C30.9589 17.0989 31.5092 16.4022 31.7843 15.5313C31.0965 15.9493 30.3054 16.2629 29.5144 16.437C28.8266 15.7055 27.898 15.2875 26.8662 15.2875C24.8715 15.2875 23.255 16.9247 23.255 18.9452C23.255 19.2239 23.2894 19.5025 23.3582 19.7812C20.3661 19.607 17.6835 18.144 15.8951 15.9493C15.5856 16.4719 15.4136 17.0989 15.4136 17.7956C15.4136 19.0497 16.0327 20.1644 17.0301 20.8263C16.4454 20.7914 15.8607 20.6521 15.3792 20.3734V20.4082C15.3792 22.1848 16.6174 23.6479 18.2682 23.9963C17.9931 24.0659 17.6491 24.1356 17.3396 24.1356C17.0989 24.1356 16.8925 24.1008 16.6518 24.0659C17.0989 25.529 18.4401 26.5741 20.0222 26.6089C18.7841 27.5843 17.2364 28.1765 15.5512 28.1765C15.2417 28.1765 14.9665 28.1417 14.6914 28.1068C16.2734 29.1519 18.165 29.7441 20.2285 29.7441C26.8662 29.7441 30.4774 24.2053 30.4774 19.3632C30.4774 19.189 30.4774 19.0497 30.4774 18.8755Z" fill="white"/>
</g>
</svg>
