<svg width="35" height="36" viewBox="0 0 35 36" fill="none" xmlns="http://www.w3.org/2000/svg">
<g id="1">
<rect id="Rectangle" x="0.393372" width="34.0884" height="35.3864" rx="17.0442" fill="#67B53A"/>
<path id="&#239;&#130;&#153;" d="M23.1196 14.8431C23.6473 14.4322 24.1223 13.9391 24.4918 13.3639C24.0168 13.583 23.4626 13.7474 22.9085 13.8022C23.489 13.446 23.9112 12.8982 24.1223 12.2134C23.5946 12.5421 22.9876 12.7886 22.3807 12.9256C21.8529 12.3503 21.1404 12.0216 20.3488 12.0216C18.8183 12.0216 17.578 13.3091 17.578 14.8979C17.578 15.117 17.6044 15.3362 17.6572 15.5553C15.3614 15.4184 13.3031 14.2678 11.9309 12.5421C11.6934 12.953 11.5615 13.446 11.5615 13.9939C11.5615 14.9801 12.0365 15.8566 12.8017 16.3771C12.3531 16.3497 11.9045 16.2401 11.5351 16.021V16.0484C11.5351 17.4454 12.4851 18.596 13.7517 18.8699C13.5406 18.9247 13.2767 18.9795 13.0392 18.9795C12.8545 18.9795 12.6962 18.9521 12.5115 18.9247C12.8545 20.0752 13.8837 20.897 15.0975 20.9244C14.1475 21.6914 12.9601 22.1571 11.667 22.1571C11.4295 22.1571 11.2184 22.1297 11.0073 22.1023C12.2212 22.9241 13.6725 23.3898 15.2558 23.3898C20.3488 23.3898 23.1196 19.0342 23.1196 15.2266C23.1196 15.0896 23.1196 14.9801 23.1196 14.8431Z" fill="white"/>
</g>
</svg>
